<svg xmlns="http://www.w3.org/2000/svg" viewBox="0 0 128 128" role="img" aria-label="Southeast Asia Alliance icon">
  <defs>
    <linearGradient id="g" x1="18" y1="18" x2="110" y2="110">
      <stop offset="0" stop-color="#9fffee"/>
      <stop offset="0.5" stop-color="#28f0c4"/>
      <stop offset="1" stop-color="#4aa8ff"/>
    </linearGradient>
    <filter id="glow" x="-25%" y="-25%" width="150%" height="150%">
      <feGaussianBlur stdDeviation="3" result="b"/>
      <feMerge><feMergeNode in="b"/><feMergeNode in="SourceGraphic"/></feMerge>
    </filter>
  </defs>
  <circle cx="64" cy="64" r="56" fill="#07111f" stroke="#28f0c4" stroke-width="3"/>
  <path d="M22 64c10-26 27-42 42-42s32 16 42 42c-10 26-27 42-42 42S32 90 22 64z" fill="url(#g)" filter="url(#glow)"/>
  <path d="M35 68c15-13 44-13 58 0M44 83c11-8 29-8 40 0M44 48c11 8 29 8 40 0" fill="none" stroke="#07111f" stroke-width="5" stroke-linecap="round"/>
  <circle cx="51" cy="63" r="5" fill="#e8fbff"/>
  <circle cx="64" cy="57" r="5" fill="#e8fbff"/>
  <circle cx="77" cy="63" r="5" fill="#e8fbff"/>
</svg>
