<svg xmlns="http://www.w3.org/2000/svg" viewBox="0 0 128 128" role="img" aria-label="World Peace Council emblem">
  <defs>
    <radialGradient id="core" cx="50%" cy="43%" r="62%">
      <stop offset="0" stop-color="#fff6b0"/>
      <stop offset="0.36" stop-color="#f7c948"/>
      <stop offset="1" stop-color="#4aa8ff"/>
    </radialGradient>
    <linearGradient id="ring" x1="18" y1="16" x2="112" y2="116">
      <stop offset="0" stop-color="#ffe27a"/>
      <stop offset="0.5" stop-color="#28e7ff"/>
      <stop offset="1" stop-color="#42e27f"/>
    </linearGradient>
    <filter id="glow" x="-30%" y="-30%" width="160%" height="160%">
      <feGaussianBlur stdDeviation="3.2" result="blur"/>
      <feMerge>
        <feMergeNode in="blur"/>
        <feMergeNode in="SourceGraphic"/>
      </feMerge>
    </filter>
  </defs>
  <circle cx="64" cy="64" r="58" fill="#07111f" stroke="url(#ring)" stroke-width="3"/>
  <circle cx="64" cy="64" r="44" fill="rgba(39,223,255,0.08)" stroke="#f7c948" stroke-width="2" filter="url(#glow)"/>
  <path d="M25 64h78M64 25v78M34 39c15 9 45 9 60 0M34 89c15-9 45-9 60 0" fill="none" stroke="#f7c948" stroke-width="3" stroke-linecap="round"/>
  <path d="M64 25c-18 18-18 60 0 78M64 25c18 18 18 60 0 78" fill="none" stroke="#28e7ff" stroke-width="3" stroke-linecap="round"/>
  <path d="M64 39l7 15 16 2-12 11 3 16-14-8-14 8 3-16-12-11 16-2z" fill="url(#core)" filter="url(#glow)"/>
  <g fill="#07111f" stroke="#42e27f" stroke-width="3">
    <circle cx="64" cy="13" r="5"/>
    <circle cx="104" cy="32" r="5"/>
    <circle cx="114" cy="76" r="5"/>
    <circle cx="86" cy="111" r="5"/>
    <circle cx="42" cy="111" r="5"/>
    <circle cx="14" cy="76" r="5"/>
    <circle cx="24" cy="32" r="5"/>
  </g>
</svg>
